# xmcd CD database file
#
# Track frame offsets:
#	150
#	11006
#	25680
#	45401
#	56827
#	71577
#	83466
#	98786
#	107510
#	121169
#	134597
#	156864
#	172083
#	189196
#
# Disc length: 2700 seconds
#
# Revision: 0
# Processed by: cddbd v1.5.2PL0 Copyright (c) Steve Scherf et al.
# Submitted via: CDex 1.70beta2
#
DISCID=ac0a8a0e
DTITLE=CB Dědows - a znějí dál
DYEAR=1900
DGENRE=Country
TTITLE0=Tulácký král
TTITLE1=Chata na vodě
TTITLE2=Je na západ cesta dlouhá
TTITLE3=Když v pastvinách
TTITLE4=Shorty a Joe
TTITLE5=Bar u zlaté plachty
TTITLE6=Pláčou moje modré oči
TTITLE7=Jdou stáda sobů
TTITLE8=Noc je dlouhá
TTITLE9=Cariboo
TTITLE10=Čajová růže
TTITLE11=Krásná Izabel
TTITLE12=Píseň severu
TTITLE13=Jedu nocí
EXTD=
EXTT0=
EXTT1=
EXTT2=
EXTT3=
EXTT4=
EXTT5=
EXTT6=
EXTT7=
EXTT8=
EXTT9=
EXTT10=
EXTT11=
EXTT12=
EXTT13=
PLAYORDER=
